<?xml version="1.0" standalone="no"?>
<!DOCTYPE svg PUBLIC "-//W3C//DTD SVG 20010904//EN"
 "http://www.w3.org/TR/2001/REC-SVG-20010904/DTD/svg10.dtd">
<svg version="1.0" xmlns="http://www.w3.org/2000/svg"
 width="50px" height="50px" viewBox="0 0 1226.000000 1226.000000"
 preserveAspectRatio="xMidYMid meet">

<g transform="translate(0.000000,1226.000000) scale(0.100000,-0.100000)"
fill="#068C45" stroke="none">
<path d="M13 12253 c9 -2 23 -2 30 0 6 3 -1 5 -18 5 -17 0 -22 -2 -12 -5z"/>
<path d="M12223 12253 c9 -2 23 -2 30 0 6 3 -1 5 -18 5 -16 0 -22 -2 -12 -5z"/>
<path d="M6080 8496 c0 -2147 2 -2486 15 -2614 45 -431 180 -814 408 -1157
115 -174 162 -232 327 -395 367 -366 791 -591 1310 -694 160 -31 454 -53 575
-41 89 8 85 -6 55 191 -78 524 -262 963 -574 1367 -71 92 -256 284 -346 360
-309 258 -687 436 -1060 498 l-75 12 145 37 c645 167 1179 560 1523 1122 353
575 454 1276 281 1946 -44 172 -89 293 -169 457 -123 253 -237 414 -430 610
-265 269 -529 448 -854 580 -299 121 -556 173 -908 182 l-223 6 0 -2467z"/>
<path d="M4395 10939 c-293 -54 -497 -171 -676 -389 -118 -144 -192 -309 -224
-500 -14 -86 -15 -364 -13 -2820 3 -2563 5 -2729 21 -2800 36 -152 118 -327
202 -430 28 -34 143 -149 185 -185 33 -29 164 -115 174 -115 3 0 33 -13 68
-28 94 -43 115 -50 210 -67 203 -36 366 -26 543 35 118 40 257 112 303 157 7
7 17 13 20 13 13 0 150 139 194 197 87 113 146 238 191 398 l22 80 0 2785 0
2785 -22 75 c-42 148 -76 224 -152 340 -107 165 -279 310 -466 392 -169 74
-415 107 -580 77z"/>
<path d="M4071 3014 c0 -11 3 -14 6 -6 3 7 2 16 -1 19 -3 4 -6 -2 -5 -13z"/>
<path d="M6380 2750 c0 -147 -4 -230 -10 -230 -5 0 -10 -22 -10 -50 0 -37 4
-50 14 -50 13 0 15 43 16 280 0 154 -2 280 -5 280 -3 0 -5 -103 -5 -230z"/>
<path d="M8391 2934 c0 -11 3 -14 6 -6 3 7 2 16 -1 19 -3 4 -6 -2 -5 -13z"/>
<path d="M3908 2923 c6 -2 18 -2 25 0 6 3 1 5 -13 5 -14 0 -19 -2 -12 -5z"/>
<path d="M8256 2905 c-9 -26 -7 -32 5 -12 6 10 9 21 6 23 -2 3 -7 -2 -11 -11z"/>
<path d="M3858 2903 c12 -2 32 -2 45 0 12 2 2 4 -23 4 -25 0 -35 -2 -22 -4z"/>
<path d="M3958 2903 c7 -3 16 -2 19 1 4 3 -2 6 -13 5 -11 0 -14 -3 -6 -6z"/>
<path d="M5502 2880 c0 -14 2 -19 5 -12 2 6 2 18 0 25 -3 6 -5 1 -5 -13z"/>
<path d="M8611 2854 c0 -11 3 -14 6 -6 3 7 2 16 -1 19 -3 4 -6 -2 -5 -13z"/>
<path d="M8440 2830 c-13 -8 -12 -10 3 -10 9 0 17 5 17 10 0 12 -1 12 -20 0z"/>
<path d="M7113 2780 c0 -25 2 -35 4 -22 2 12 2 32 0 45 -2 12 -4 2 -4 -23z"/>
<path d="M6711 2773 c0 -12 -4 -30 -7 -40 -5 -17 -5 -17 6 0 6 10 9 28 7 40
-4 22 -4 22 -6 0z"/>
<path d="M6973 2775 c-3 -9 -3 -18 -1 -21 3 -3 8 4 11 16 6 23 -1 27 -10 5z"/>
<path d="M8641 2774 c0 -11 3 -14 6 -6 3 7 2 16 -1 19 -3 4 -6 -2 -5 -13z"/>
<path d="M5503 2765 c-3 -9 -3 -18 -1 -21 3 -3 8 4 11 16 6 23 -1 27 -10 5z"/>
<path d="M8060 2771 c0 -6 4 -13 10 -16 6 -3 7 1 4 9 -7 18 -14 21 -14 7z"/>
<path d="M8278 2773 c7 -3 16 -2 19 1 4 3 -2 6 -13 5 -11 0 -14 -3 -6 -6z"/>
<path d="M4111 2754 c0 -11 3 -14 6 -6 3 7 2 16 -1 19 -3 4 -6 -2 -5 -13z"/>
<path d="M6677 2751 c-4 -17 -3 -21 5 -13 5 5 8 16 6 23 -3 8 -7 3 -11 -10z"/>
<path d="M5124 2715 c1 -34 4 -44 16 -42 8 1 14 -3 13 -10 -2 -7 4 -10 12 -6
13 5 14 7 1 17 -7 6 -19 28 -26 49 -6 20 -13 37 -14 37 -1 0 -2 -20 -2 -45z"/>
<path d="M5711 2744 c0 -11 3 -14 6 -6 3 7 2 16 -1 19 -3 4 -6 -2 -5 -13z"/>
<path d="M8255 2750 c3 -5 8 -10 11 -10 2 0 4 5 4 10 0 6 -5 10 -11 10 -5 0
-7 -4 -4 -10z"/>
<path d="M8435 2750 c-3 -5 -1 -10 4 -10 6 0 11 5 11 10 0 6 -2 10 -4 10 -3 0
-8 -4 -11 -10z"/>
<path d="M5681 2734 c0 -11 3 -14 6 -6 3 7 2 16 -1 19 -3 4 -6 -2 -5 -13z"/>
<path d="M8022 2725 c0 -16 2 -22 5 -12 2 9 2 23 0 30 -3 6 -5 -1 -5 -18z"/>
<path d="M8646 2741 c-6 -9 15 -61 26 -61 3 0 4 9 1 20 -3 11 -10 20 -15 20
-6 0 -8 7 -4 15 6 16 1 20 -8 6z"/>
<path d="M3581 2583 l-1 -163 90 0 90 0 0 40 0 40 -40 0 c-36 0 -40 3 -40 25
0 16 -6 25 -15 25 -8 0 -15 9 -15 20 0 14 -7 20 -24 20 -22 0 -24 5 -33 78
-10 74 -10 70 -12 -85z"/>
<path d="M3818 2733 c6 -2 18 -2 25 0 6 3 1 5 -13 5 -14 0 -19 -2 -12 -5z"/>
<path d="M4905 2730 c4 -6 11 -8 16 -5 14 9 11 15 -7 15 -8 0 -12 -5 -9 -10z"/>
<path d="M6882 2720 c0 -14 2 -19 5 -12 2 6 2 18 0 25 -3 6 -5 1 -5 -13z"/>
<path d="M7280 2620 l0 -120 -80 0 -80 0 0 52 c0 81 -8 52 -12 -45 l-4 -87 93
0 93 0 0 160 c0 88 -2 160 -5 160 -3 0 -5 -54 -5 -120z"/>
<path d="M5513 2695 c0 -22 2 -30 4 -17 2 12 2 30 0 40 -3 9 -5 -1 -4 -23z"/>
<path d="M3900 2715 c0 -5 5 -17 10 -25 5 -8 10 -10 10 -5 0 6 -5 17 -10 25
-5 8 -10 11 -10 5z"/>
<path d="M5697 2707 c-4 -10 -7 -28 -6 -40 0 -21 1 -21 10 2 5 14 8 32 7 40
-3 13 -5 13 -11 -2z"/>
<path d="M6680 2706 c0 -8 4 -17 9 -20 5 -4 7 3 4 14 -6 23 -13 26 -13 6z"/>
<path d="M6711 2694 c0 -11 3 -14 6 -6 3 7 2 16 -1 19 -3 4 -6 -2 -5 -13z"/>
<path d="M8040 2680 c-6 -12 -7 -20 -1 -20 5 0 12 6 14 13 4 9 8 8 16 -3 9
-13 11 -13 11 1 0 25 -28 31 -40 9z"/>
<path d="M4921 2678 c0 -9 -5 -18 -9 -20 -4 -1 -2 -14 5 -28 9 -18 13 -20 13
-7 0 9 5 17 11 17 6 0 9 -14 7 -32 -2 -21 2 -32 12 -35 9 -3 11 -1 5 4 -6 4
-10 27 -10 50 1 29 -2 40 -11 36 -7 -2 -14 4 -17 14 -4 15 -5 15 -6 1z"/>
<path d="M6931 2672 c-1 -13 -8 -36 -16 -51 -8 -16 -11 -31 -8 -35 4 -3 1 -6
-6 -6 -9 0 -11 9 -7 28 5 22 4 24 -4 9 -15 -24 -3 -62 15 -47 16 13 39 94 32
112 -3 7 -6 3 -6 -10z"/>
<path d="M7997 2683 c-4 -3 -7 -16 -7 -28 0 -12 -3 -25 -7 -29 -13 -12 -43
-100 -42 -121 1 -11 7 0 15 25 8 25 21 59 28 75 26 54 33 98 13 78z"/>
<path d="M5435 2670 c-3 -5 -1 -10 4 -10 6 0 11 5 11 10 0 6 -2 10 -4 10 -3 0
-8 -4 -11 -10z"/>
<path d="M5470 2670 c0 -5 5 -10 10 -10 6 0 10 5 10 10 0 6 -4 10 -10 10 -5 0
-10 -4 -10 -10z"/>
<path d="M8675 2661 c-3 -5 -1 -12 5 -16 5 -3 10 1 10 9 0 18 -6 21 -15 7z"/>
<path d="M3774 2540 c0 -69 1 -97 3 -62 2 34 2 90 0 125 -2 34 -3 6 -3 -63z"/>
<path d="M3949 2646 c6 -7 9 -20 5 -29 -3 -8 4 -33 15 -56 12 -22 21 -48 21
-57 0 -10 3 -14 6 -11 4 4 14 -8 23 -26 10 -20 22 -31 33 -29 9 1 19 -2 23 -8
3 -5 41 -10 83 -10 l77 0 16 45 c9 25 13 48 8 51 -5 3 -9 -1 -9 -8 0 -10 -20
-12 -85 -10 -65 3 -85 7 -85 18 0 15 -66 21 -72 5 -1 -4 -10 7 -20 26 -10 22
-12 33 -4 30 7 -3 12 5 13 22 0 14 -1 18 -4 9 -5 -19 -33 -25 -33 -8 0 6 9 20
20 32 11 12 17 24 14 27 -3 3 -10 -1 -15 -9 -8 -11 -12 -12 -16 -2 -2 6 -9 12
-15 12 -7 0 -6 -5 1 -14z m88 -168 c-3 -8 -6 -5 -6 6 -1 11 2 17 5 13 3 -3 4
-12 1 -19z"/>
<path d="M4166 2645 c-9 -26 -7 -32 5 -12 6 10 9 21 6 23 -2 3 -7 -2 -11 -11z"/>
<path d="M5620 2633 c-14 -30 -14 -56 1 -61 5 -2 7 -8 3 -13 -3 -5 -1 -9 4 -9
6 0 8 17 5 39 -3 23 -1 41 6 45 13 8 15 26 3 26 -5 0 -15 -12 -22 -27z"/>
<path d="M5670 2651 c0 -6 4 -13 10 -16 6 -3 7 1 4 9 -7 18 -14 21 -14 7z"/>
<path d="M6343 2620 c0 -25 2 -35 4 -22 2 12 2 32 0 45 -2 12 -4 2 -4 -23z"/>
<path d="M7317 2546 c-4 -66 -5 -121 -2 -124 13 -13 15 13 13 124 l-3 119 -8
-119z"/>
<path d="M8208 2653 c6 -2 18 -2 25 0 6 3 1 5 -13 5 -14 0 -19 -2 -12 -5z"/>
<path d="M8343 2653 c15 -2 37 -2 50 0 12 2 0 4 -28 4 -27 0 -38 -2 -22 -4z"/>
<path d="M5401 2641 c-7 -5 -11 -13 -7 -19 3 -5 -11 -17 -32 -25 l-37 -15 50
1 c30 0 42 3 30 7 -19 7 -19 7 0 18 12 7 15 12 6 12 -11 0 -11 3 -1 15 14 17
11 19 -9 6z"/>
<path d="M8160 2640 c0 -5 4 -10 9 -10 6 0 13 5 16 10 3 6 -1 10 -9 10 -9 0
-16 -4 -16 -10z"/>
<path d="M8448 2643 c6 -2 18 -2 25 0 6 3 1 5 -13 5 -14 0 -19 -2 -12 -5z"/>
<path d="M4190 2630 c0 -5 5 -10 11 -10 5 0 7 5 4 10 -3 6 -8 10 -11 10 -2 0
-4 -4 -4 -10z"/>
<path d="M8208 2633 c7 -3 16 -2 19 1 4 3 -2 6 -13 5 -11 0 -14 -3 -6 -6z"/>
<path d="M8333 2633 c15 -2 37 -2 50 0 12 2 0 4 -28 4 -27 0 -38 -2 -22 -4z"/>
<path d="M7092 2605 c0 -16 2 -22 5 -12 2 9 2 23 0 30 -3 6 -5 -1 -5 -18z"/>
<path d="M8440 2625 c0 -2 9 -9 20 -15 16 -9 20 -8 20 5 0 8 -9 15 -20 15 -11
0 -20 -2 -20 -5z"/>
<path d="M8690 2620 c0 -8 5 -22 10 -30 9 -13 10 -13 10 0 0 8 -5 22 -10 30
-9 13 -10 13 -10 0z"/>
<path d="M5238 2613 c6 -2 18 -2 25 0 6 3 1 5 -13 5 -14 0 -19 -2 -12 -5z"/>
<path d="M5650 2605 c0 -8 2 -15 4 -15 2 0 6 7 10 15 3 8 1 15 -4 15 -6 0 -10
-7 -10 -15z"/>
<path d="M8170 2605 c-10 -12 -10 -15 3 -15 8 0 20 7 27 15 10 12 10 15 -3 15
-8 0 -20 -7 -27 -15z"/>
<path d="M8253 2613 c15 -2 37 -2 50 0 12 2 0 4 -28 4 -27 0 -38 -2 -22 -4z"/>
<path d="M5195 2600 c-7 -11 22 -26 32 -16 4 3 -2 6 -13 6 -16 0 -17 2 -4 10
9 6 10 10 3 10 -6 0 -15 -5 -18 -10z"/>
<path d="M5286 2598 c5 -8 0 -9 -14 -6 -12 4 -22 2 -22 -3 0 -5 13 -9 28 -9
19 0 29 5 29 15 0 8 -7 15 -14 15 -8 0 -11 -5 -7 -12z"/>
<path d="M8656 2595 c-3 -9 0 -15 9 -15 16 0 20 16 6 24 -5 3 -11 -1 -15 -9z"/>
<path d="M5120 2590 c0 -6 7 -10 15 -10 8 0 15 2 15 4 0 2 -7 6 -15 10 -8 3
-15 1 -15 -4z"/>
<path d="M8476 2570 c4 -14 11 -26 15 -28 5 -2 9 -18 9 -35 0 -18 4 -27 8 -21
5 7 15 6 32 -3 14 -7 19 -13 13 -13 -17 0 -16 -18 1 -36 10 -10 38 -14 94 -14
72 0 80 2 90 23 l11 22 0 -22 c1 -13 6 -23 12 -23 7 0 8 7 4 18 -4 9 -11 32
-17 50 -5 17 -11 32 -15 32 -3 0 -3 -6 0 -12 3 -10 -16 -12 -84 -10 -79 3 -90
6 -101 25 -11 21 -11 21 -18 2 -6 -16 -9 -13 -15 18 -5 26 -12 37 -21 33 -7
-3 -15 0 -18 7 -3 7 -3 1 0 -13z"/>
<path d="M4995 2569 c-5 -8 -1 -9 14 -4 22 7 30 -10 9 -18 -7 -2 -9 -8 -5 -13
9 -10 28 16 24 31 -5 15 -34 18 -42 4z"/>
<path d="M7980 2562 c0 -22 -27 -79 -41 -87 -5 -4 -9 2 -10 12 0 10 -5 5 -10
-12 -18 -60 -23 -57 94 -56 117 2 138 11 151 63 3 12 3 17 0 11 -3 -7 -19 -13
-35 -13 -18 0 -28 4 -24 10 4 6 -16 10 -54 10 -50 0 -59 -3 -55 -15 5 -11 2
-13 -10 -9 -11 4 -13 10 -8 18 15 18 24 86 12 86 -5 0 -10 -8 -10 -18z"/>
<path d="M8171 2568 c0 -9 -4 -25 -7 -35 -5 -14 -4 -15 5 -7 7 7 11 22 8 35
-2 13 -5 16 -6 7z"/>
<path d="M6818 2563 c12 -2 32 -2 45 0 12 2 2 4 -23 4 -25 0 -35 -2 -22 -4z"/>
<path d="M8646 2545 c8 -37 14 -45 14 -19 0 10 -5 26 -10 34 -8 11 -9 7 -4
-15z"/>
<path d="M5120 2556 c0 -2 7 -6 15 -10 8 -3 15 -1 15 4 0 6 -7 10 -15 10 -8 0
-15 -2 -15 -4z"/>
<path d="M5205 2550 l-50 -7 47 -1 c26 -1 50 3 53 8 3 6 5 9 3 8 -2 0 -25 -4
-53 -8z"/>
<path d="M5600 2545 c0 -8 4 -15 10 -15 5 0 7 7 4 15 -4 8 -8 15 -10 15 -2 0
-4 -7 -4 -15z"/>
<path d="M6338 2524 c-2 -19 0 -37 4 -40 4 -3 8 13 8 35 0 51 -6 53 -12 5z"/>
<path d="M8721 2544 c0 -11 3 -14 6 -6 3 7 2 16 -1 19 -3 4 -6 -2 -5 -13z"/>
<path d="M5277 2517 c5 -33 3 -37 -22 -43 -18 -4 -37 -1 -55 10 -16 9 -38 16
-49 16 -12 0 -21 6 -21 15 0 20 -66 20 -87 0 -8 -8 -19 -12 -25 -9 -7 4 -8 2
-4 -5 4 -6 13 -11 19 -10 24 3 38 -1 33 -10 -8 -12 32 -37 73 -46 23 -5 31 -4
27 4 -4 6 -17 11 -29 11 -16 0 -23 6 -23 20 0 16 7 20 30 20 28 0 29 -1 10
-15 -19 -14 -19 -14 2 -15 11 0 25 5 32 12 9 9 12 8 12 -4 0 -9 -5 -18 -11
-20 -5 -2 -8 -10 -4 -18 6 -16 80 -21 103 -7 7 5 12 4 12 -2 0 -6 20 -11 45
-11 25 0 45 4 45 9 0 4 11 6 25 3 14 -2 25 0 25 7 0 5 8 8 18 5 16 -5 16 -5 0
9 -23 18 -23 31 -1 23 9 -4 20 -1 24 6 6 9 11 9 23 -1 12 -10 21 -9 48 5 19
10 28 19 20 22 -7 2 -21 -3 -31 -12 -16 -14 -19 -14 -37 0 -19 15 -19 15 2 11
17 -4 20 -1 17 14 -4 14 -14 19 -42 19 -52 0 -72 -16 -31 -25 24 -5 29 -10 21
-18 -9 -9 -14 -8 -20 2 -5 8 -16 11 -25 8 -9 -4 -16 -3 -16 2 0 4 -13 6 -30 3
-19 -3 -30 0 -30 7 0 7 5 9 10 6 6 -3 10 -1 10 4 0 6 -17 11 -38 11 -21 0 -43
5 -50 12 -8 8 -10 3 -5 -25z m60 -93 c-3 -3 -12 -4 -19 -1 -8 3 -5 6 6 6 11 1
17 -2 13 -5z"/>
<path d="M4985 2530 c3 -5 8 -10 11 -10 2 0 4 5 4 10 0 6 -5 10 -11 10 -5 0
-7 -4 -4 -10z"/>
<path d="M5166 2515 c25 -19 34 -19 34 0 0 10 -10 15 -27 15 -26 0 -26 -1 -7
-15z"/>
<path d="M6400 2475 l0 -55 80 0 80 0 0 40 0 40 -40 0 c-29 0 -40 4 -40 15 0
11 -11 15 -40 15 l-40 0 0 -55z"/>
<path d="M3540 2468 c0 -38 3 -46 15 -42 13 5 13 9 3 22 -10 12 -10 14 0 8 17
-10 15 16 -3 40 -13 18 -14 15 -15 -28z"/>
<path d="M5223 2493 c9 -2 25 -2 35 0 9 3 1 5 -18 5 -19 0 -27 -2 -17 -5z"/>
<path d="M4263 2454 c-8 -21 13 -42 28 -27 13 13 5 43 -11 43 -6 0 -13 -7 -17
-16z m24 -16 c-3 -8 -6 -5 -6 6 -1 11 2 17 5 13 3 -3 4 -12 1 -19z"/>
<path d="M8510 2458 c0 -7 5 -20 10 -28 8 -12 10 -11 10 7 0 12 -4 25 -10 28
-5 3 -10 0 -10 -7z"/>
<path d="M5485 2450 c-3 -5 -1 -10 4 -10 6 0 11 5 11 10 0 6 -2 10 -4 10 -3 0
-8 -4 -11 -10z"/>
<path d="M2223 2100 c-46 -19 -63 -66 -63 -173 l0 -99 34 -34 c34 -34 37 -35
102 -32 93 4 99 26 8 30 -59 3 -69 6 -87 29 -25 35 -34 139 -15 194 17 52 48
68 116 60 40 -4 52 -2 52 9 0 8 -7 17 -16 20 -23 9 -105 6 -131 -4z"/>
<path d="M2574 2091 c-40 -25 -56 -71 -56 -165 0 -121 36 -166 134 -166 50 0
62 4 90 29 32 28 33 33 37 117 4 110 -10 159 -52 184 -42 26 -112 26 -153 1z
m126 -26 c38 -20 54 -77 46 -165 -7 -79 -34 -110 -96 -110 -64 0 -90 30 -96
115 -11 142 51 209 146 160z"/>
<path d="M2959 2081 c-34 -35 -39 -86 -11 -119 11 -12 45 -28 77 -36 72 -19
85 -30 85 -72 0 -49 -32 -67 -111 -62 -40 2 -64 -1 -66 -8 -5 -15 30 -24 99
-24 75 0 108 26 115 90 6 58 -16 85 -83 101 -71 17 -94 34 -94 69 0 45 36 64
110 57 45 -4 60 -2 60 8 0 19 -23 25 -92 25 -53 0 -63 -3 -89 -29z"/>
<path d="M3310 1936 c0 -146 2 -176 14 -176 23 0 28 33 25 165 -2 68 -1 127 2
130 3 3 28 -59 55 -137 66 -193 72 -193 139 2 l50 145 3 -152 c2 -145 4 -153
22 -153 20 0 20 6 18 173 l-3 172 -30 0 c-30 0 -31 -2 -76 -135 -25 -74 -50
-134 -55 -134 -5 1 -29 62 -54 135 -45 133 -45 134 -77 137 l-33 3 0 -175z"/>
<path d="M3885 2100 c-11 -18 -95 -333 -90 -338 13 -13 35 12 41 48 l7 40 78
0 79 0 12 -45 c9 -32 17 -45 30 -45 10 0 18 1 18 3 0 1 -22 79 -48 172 l-47
170 -37 3 c-20 2 -39 -2 -43 -8z m80 -124 c13 -46 21 -87 17 -90 -9 -9 -110
-7 -116 2 -7 11 33 162 47 180 16 21 28 0 52 -92z"/>
<path d="M4155 2100 c-12 -20 7 -30 56 -30 l49 0 0 -155 c0 -131 2 -155 15
-155 13 0 15 24 15 155 l0 155 55 0 c48 0 55 2 55 20 0 19 -7 20 -119 20 -69
0 -122 -4 -126 -10z"/>
<path d="M4547 2103 c-4 -3 -7 -82 -7 -175 0 -143 2 -168 15 -168 13 0 15 26
15 175 0 160 -4 188 -23 168z"/>
<path d="M4800 2097 c-41 -20 -62 -76 -62 -166 0 -88 18 -140 55 -160 34 -18
151 -10 155 10 2 13 -7 15 -55 11 -80 -6 -108 16 -117 92 -9 70 1 140 24 169
15 18 29 22 82 23 85 2 86 3 64 19 -24 18 -111 19 -146 2z"/>
<path d="M5144 2098 c-39 -18 -55 -78 -33 -121 16 -29 24 -34 89 -53 71 -21
80 -29 80 -70 0 -49 -33 -68 -110 -62 -41 3 -61 0 -64 -8 -7 -18 17 -24 89
-24 53 0 69 4 92 24 24 21 28 32 28 76 0 59 -13 74 -80 90 -68 17 -90 32 -93
67 -5 48 31 67 108 60 45 -4 60 -2 60 8 0 7 -7 16 -16 19 -25 10 -127 6 -150
-6z"/>
<path d="M5750 2103 c-8 -4 -20 -13 -27 -22 -16 -21 -16 -84 0 -100 10 -10 8
-15 -8 -26 -43 -30 -55 -49 -55 -86 0 -79 33 -109 120 -109 38 0 55 6 80 26
l31 27 28 -27 c38 -37 53 -15 17 23 -24 25 -26 32 -20 84 5 41 3 57 -5 57 -12
0 -15 -7 -25 -53 l-6 -27 -35 27 c-19 16 -35 32 -35 37 0 5 14 22 32 36 79 66
6 171 -92 133z m78 -35 c20 -20 14 -65 -10 -82 -32 -23 -53 -20 -66 9 -24 52
-9 85 38 85 14 0 31 -5 38 -12z m-19 -182 l53 -54 -21 -21 c-52 -52 -160 -7
-147 62 5 29 37 67 55 67 4 0 31 -24 60 -54z"/>
<path d="M6375 2100 c-6 -9 -95 -326 -95 -337 0 -2 8 -3 19 -3 13 0 20 11 27
43 l9 42 77 3 78 3 12 -46 c9 -33 17 -45 31 -45 11 0 17 5 14 13 -2 6 -19 66
-37 132 -56 209 -52 200 -92 203 -20 2 -39 -2 -43 -8z m70 -87 c9 -32 20 -71
26 -87 5 -15 6 -32 3 -37 -7 -12 -111 -11 -119 1 -3 6 5 48 20 95 31 103 48
109 70 28z"/>
<path d="M6755 2101 c-48 -20 -60 -48 -63 -151 -6 -153 21 -190 137 -190 40 0
63 5 71 15 15 18 13 18 -60 15 -98 -3 -133 56 -115 190 11 78 30 95 111 96 68
1 96 16 52 28 -32 8 -109 6 -133 -3z"/>
<path d="M7096 2089 c-38 -30 -47 -60 -47 -156 0 -139 29 -173 146 -173 55 0
65 3 65 18 0 15 -8 17 -58 14 -78 -5 -107 18 -117 88 -9 66 2 145 25 173 15
18 29 22 82 23 84 2 86 2 64 19 -31 24 -127 20 -160 -6z"/>
<path d="M7427 2104 c-4 -4 -7 -83 -7 -176 l0 -168 105 0 c85 0 105 3 105 15
0 11 -19 15 -87 17 l-88 3 -3 63 -3 62 76 0 c59 0 75 3 75 15 0 11 -17 15 -72
17 l-73 3 -3 57 -3 57 88 3 c70 2 88 6 88 18 0 12 -19 16 -95 18 -53 1 -99 0
-103 -4z"/>
<path d="M7791 2084 c-25 -21 -31 -33 -31 -65 0 -51 23 -74 97 -95 74 -21 83
-29 83 -70 0 -48 -32 -67 -109 -62 -33 1 -63 -1 -67 -5 -16 -15 21 -27 88 -27
86 0 117 23 125 92 6 56 -14 82 -79 98 -71 17 -93 32 -96 67 -5 48 30 67 108
60 47 -5 60 -3 60 7 0 19 -23 26 -90 26 -48 0 -64 -5 -89 -26z"/>
<path d="M8159 2081 c-34 -35 -39 -86 -11 -119 11 -12 45 -28 77 -36 72 -19
85 -30 85 -72 0 -49 -32 -67 -111 -62 -40 2 -64 -1 -66 -8 -5 -15 30 -24 99
-24 75 0 108 26 115 90 6 58 -16 85 -83 101 -71 17 -94 34 -94 69 0 45 36 64
110 57 45 -4 60 -2 60 8 0 19 -23 25 -92 25 -53 0 -63 -3 -89 -29z"/>
<path d="M8554 2091 c-40 -24 -56 -71 -57 -165 0 -119 37 -166 133 -166 97 0
132 44 132 169 0 94 -19 144 -61 165 -41 22 -109 20 -147 -3z m147 -40 c39
-48 34 -197 -7 -238 -31 -31 -93 -32 -129 0 -21 18 -27 34 -31 87 -8 85 8 145
44 165 36 20 102 13 123 -14z"/>
<path d="M8930 1935 c0 -149 2 -175 15 -175 12 0 15 14 15 65 l0 65 54 0 53 0
29 -65 c20 -45 35 -65 47 -65 21 0 18 17 -17 91 l-22 45 28 26 c23 21 28 34
28 75 0 85 -41 113 -167 113 l-63 0 0 -175z m181 119 c7 -9 14 -34 14 -56 0
-54 -22 -68 -102 -68 l-63 0 0 70 0 70 69 0 c51 0 72 -4 82 -16z"/>
<path d="M9330 1935 c0 -149 2 -175 15 -175 13 0 15 26 15 175 0 149 -2 175
-15 175 -13 0 -15 -26 -15 -175z"/>
<path d="M9547 2104 c-4 -4 -7 -83 -7 -176 l0 -168 105 0 c85 0 105 3 105 15
0 11 -19 15 -87 17 l-88 3 0 60 0 60 69 5 c98 7 100 28 4 32 l-73 3 -3 57 -3
57 88 3 c70 2 88 6 88 18 0 12 -19 16 -95 18 -53 1 -99 0 -103 -4z"/>
<path d="M9919 2081 c-34 -34 -39 -86 -11 -118 9 -11 42 -28 72 -38 71 -23 80
-31 80 -71 0 -48 -32 -67 -106 -62 -36 2 -59 -1 -61 -8 -5 -15 30 -24 94 -24
70 0 103 27 110 92 7 57 -11 77 -88 102 -68 23 -79 32 -79 67 0 43 37 63 105
56 42 -4 55 -2 55 8 0 18 -23 25 -87 25 -47 0 -59 -4 -84 -29z"/>
<path d="M7 233 c7 -2 19 -2 26 0 6 3 1 5 -13 5 -14 0 -19 -2 -13 -5z"/>
<path d="M12228 233 c6 -2 18 -2 25 0 6 3 1 5 -13 5 -14 0 -19 -2 -12 -5z"/>
</g>
</svg>
